<svg width="14" height="14" viewBox="0 0 14 14" fill="none" xmlns="http://www.w3.org/2000/svg">
<path d="M13.1987 12.5928L9.69873 9.09284C10.5804 8.01301 11.0136 6.63571 10.9086 5.2456C10.8037 3.85549 10.1687 2.55882 9.13494 1.62357C8.10114 0.688328 6.74754 0.186 5.3539 0.220408C3.96025 0.254816 2.63309 0.823327 1.64671 1.80845C0.660317 2.79357 0.0900984 4.11999 0.053898 5.51359C0.0176976 6.90719 0.518282 8.26143 1.4522 9.29643C2.38611 10.3314 3.68196 10.9681 5.07194 11.0748C6.46192 11.1815 7.83977 10.7501 8.92073 9.86984L12.4207 13.3698C12.5239 13.473 12.6638 13.531 12.8097 13.531C12.9556 13.531 13.0956 13.473 13.1987 13.3698C13.3019 13.2667 13.3599 13.1267 13.3599 12.9808C13.3599 12.8349 13.3019 12.695 13.1987 12.5918V12.5928ZM1.17773 5.66783C1.17793 4.81366 1.4314 3.97872 1.9061 3.2686C2.3808 2.55847 3.0554 2.00505 3.84461 1.67831C4.63382 1.35157 5.5022 1.26618 6.33994 1.43294C7.17767 1.59971 7.94715 2.01113 8.55108 2.61519C9.155 3.21926 9.56624 3.98883 9.73281 4.82661C9.89938 5.66438 9.81379 6.53274 9.48687 7.32188C9.15994 8.11101 8.60637 8.78549 7.89613 9.26002C7.1859 9.73455 6.3509 9.98783 5.49673 9.98783C4.35141 9.98677 3.25332 9.53126 2.44355 8.72131C1.63378 7.91135 1.17852 6.81315 1.17773 5.66783Z" fill="#86868B"/>
</svg>
